<svg xmlns="http://www.w3.org/2000/svg" viewBox="0 0 64 64" width="64" height="64">
  <defs>
    <linearGradient id="g1" x1="0%" y1="0%" x2="100%" y2="100%">
      <stop offset="0%" stop-color="#2d1b4e"/>
      <stop offset="50%" stop-color="#1e1b4b"/>
      <stop offset="100%" stop-color="#0f0a1e"/>
    </linearGradient>
    <linearGradient id="g2" x1="0%" y1="100%" x2="0%" y2="0%">
      <stop offset="0%" stop-color="#4a1942"/>
      <stop offset="50%" stop-color="#6b21a8"/>
      <stop offset="100%" stop-color="#c0c5ce"/>
    </linearGradient>
  </defs>
  <circle cx="32" cy="32" r="26" fill="none" stroke="url(#g1)" stroke-width="1.2"/>
  <circle cx="32" cy="32" r="20" fill="none" stroke="#2d1b4e" stroke-width="0.6" opacity="0.5"/>
  <line x1="46.14" y1="46.14" x2="50.38" y2="50.38" stroke="#a78bfa" stroke-width="1" opacity="0.5"/>
  <line x1="17.86" y1="46.14" x2="13.62" y2="50.38" stroke="#a78bfa" stroke-width="1" opacity="0.5"/>
  <line x1="17.86" y1="17.86" x2="13.62" y2="13.62" stroke="#a78bfa" stroke-width="1" opacity="0.5"/>
  <line x1="46.14" y1="17.86" x2="50.38" y2="13.62" stroke="#a78bfa" stroke-width="1" opacity="0.5"/>
  <line x1="52" y1="32" x2="58" y2="32" stroke="#a78bfa" stroke-width="1" opacity="0.5"/>
  <line x1="32" y1="52" x2="32" y2="58" stroke="#a78bfa" stroke-width="1" opacity="0.5"/>
  <line x1="12" y1="32" x2="6" y2="32" stroke="#a78bfa" stroke-width="1" opacity="0.5"/>
  <line x1="32" y1="12" x2="32" y2="6" stroke="#a78bfa" stroke-width="1" opacity="0.5"/>
  <path d="M32 14 L20 50 L27 50 L32 38 L37 50 L44 50 Z" fill="none" stroke="url(#g2)" stroke-width="2" stroke-linecap="round" stroke-linejoin="round"/>
</svg>
